<svg xmlns="http://www.w3.org/2000/svg" width="116.892" height="116.886" viewBox="0 0 116.892 116.886">
  <g id="Group_5" data-name="Group 5" transform="translate(-939.854 -479.415)">
    <path id="Path_31" data-name="Path 31" d="M469.48,169.309h15.791l13.366,79.333c1.115,6.619,5.873,11.368,11.389,11.368H571.7" transform="translate(472.124 311.856)" fill="none" stroke="#2a4ba0" stroke-linecap="round" stroke-linejoin="round" stroke-miterlimit="10" stroke-width="3.5"/>
    <path id="Path_32" data-name="Path 32" d="M487.95,185.208h91.314c2.163,0,3.839,2.32,3.576,4.95l-4.691,46.9a4.09,4.09,0,0,1-3.11,3.84l-75.078,11.98Z" transform="translate(472.124 311.856)" fill="#f9b023" stroke="#2a4ba0" stroke-linecap="round" stroke-linejoin="round" stroke-miterlimit="10" stroke-width="3.5"/>
    <circle id="Ellipse_2" data-name="Ellipse 2" cx="8.192" cy="8.192" r="8.192" transform="translate(1025.228 578.167)" fill="none" stroke="#2a4ba0" stroke-linecap="round" stroke-linejoin="round" stroke-miterlimit="10" stroke-width="3.5"/>
    <circle id="Ellipse_3" data-name="Ellipse 3" cx="8.192" cy="8.192" r="8.192" transform="translate(976.328 578.167)" fill="none" stroke="#2a4ba0" stroke-linecap="round" stroke-linejoin="round" stroke-miterlimit="10" stroke-width="3.5"/>
    <path id="Path_33" data-name="Path 33" d="M581.332,203" transform="translate(472.124 311.856)" fill="none" stroke="#2a4ba0" stroke-linecap="round" stroke-linejoin="round" stroke-miterlimit="10" stroke-width="3.5"/>
    <path id="Path_34" data-name="Path 34" d="M527.417,207" transform="translate(472.124 311.856)" fill="none" stroke="#2a4ba0" stroke-linecap="round" stroke-linejoin="round" stroke-miterlimit="10" stroke-width="3.5"/>
    <path id="Path_35" data-name="Path 35" d="M579.665,217.5" transform="translate(472.124 311.856)" fill="none" stroke="#2a4ba0" stroke-linecap="round" stroke-linejoin="round" stroke-miterlimit="10" stroke-width="3.5"/>
    <path id="Path_36" data-name="Path 36" d="M512.417,221.5" transform="translate(472.124 311.856)" fill="none" stroke="#2a4ba0" stroke-linecap="round" stroke-linejoin="round" stroke-miterlimit="10" stroke-width="3.5"/>
  </g>
</svg>
