<svg xmlns="http://www.w3.org/2000/svg" width="116.928" height="116.894" viewBox="0 0 116.928 116.894">
  <g id="Group_8" data-name="Group 8" transform="translate(-642.891 -479.415)">
    <rect id="Rectangle_5" data-name="Rectangle 5" width="29.62" height="17.927" transform="translate(650.818 504.573)" fill="#f9b023" stroke="#2a4ba0" stroke-linecap="round" stroke-linejoin="round" stroke-miterlimit="10" stroke-width="3.5"/>
    <path id="Path_24" data-name="Path 24" d="M246.046,210.643h-29.62V199.036l6.258-5.588h14.184l9.178,9.543Z" transform="translate(472.124 311.856)" fill="#f9b023" stroke="#2a4ba0" stroke-linecap="round" stroke-linejoin="round" stroke-miterlimit="10" stroke-width="3.5"/>
    <rect id="Rectangle_6" data-name="Rectangle 6" width="13.234" height="8.082" transform="translate(694.808 497.222)" fill="none" stroke="#2a4ba0" stroke-linecap="round" stroke-linejoin="round" stroke-miterlimit="10" stroke-width="3.5"/>
    <path id="Path_25" data-name="Path 25" d="M200.527,184.011H186.481l-7.787,8.706h29.62Z" transform="translate(472.124 311.856)" fill="none" stroke="#2a4ba0" stroke-linecap="round" stroke-linejoin="round" stroke-miterlimit="10" stroke-width="3.5"/>
    <rect id="Rectangle_7" data-name="Rectangle 7" width="13.962" height="14.702" transform="translate(658.647 481.165)" fill="none" stroke="#2a4ba0" stroke-linecap="round" stroke-linejoin="round" stroke-miterlimit="10" stroke-width="3.5"/>
    <path id="Path_26" data-name="Path 26" d="M229.3,185.366h6.617l10.128-7.867V169.31h-9.838a22.027,22.027,0,0,0-14.721,5.33,14.14,14.14,0,0,0-5.061,10.726Z" transform="translate(472.124 311.856)" fill="#f9b023" stroke="#2a4ba0" stroke-linecap="round" stroke-linejoin="round" stroke-miterlimit="10" stroke-width="3.5"/>
    <rect id="Rectangle_8" data-name="Rectangle 8" width="8.83" height="8.189" transform="translate(718.17 481.165)" fill="none" stroke="#2a4ba0" stroke-linecap="round" stroke-linejoin="round" stroke-miterlimit="10" stroke-width="3.5"/>
    <line id="Line_8" data-name="Line 8" x2="5.665" y2="10.672" transform="translate(713.757 492.783)" fill="none" stroke="#2a4ba0" stroke-linecap="round" stroke-linejoin="round" stroke-miterlimit="10" stroke-width="3.5"/>
    <rect id="Rectangle_9" data-name="Rectangle 9" width="88.536" height="8.082" transform="translate(644.641 522.499)" fill="none" stroke="#2a4ba0" stroke-linecap="round" stroke-linejoin="round" stroke-miterlimit="10" stroke-width="3.5"/>
    <path id="Path_27" data-name="Path 27" d="M216.785,218.725H179.053l8.9,60.272h57.665l8.9-60.272Z" transform="translate(472.124 311.856)" fill="none" stroke="#2a4ba0" stroke-linecap="round" stroke-linejoin="round" stroke-miterlimit="10" stroke-width="3.5"/>
    <path id="Path_28" data-name="Path 28" d="M240.4,233.273l-12.9-6.254V210.643H193.5v46.128a6.133,6.133,0,0,0,6.351,5.89h21.288a6.134,6.134,0,0,0,6.351-5.89v-19.76l8.481,4.11a4.963,4.963,0,0,0,6.443-1.874h0A4.275,4.275,0,0,0,240.4,233.273Z" transform="translate(472.124 311.856)" fill="#f9b023" stroke="#2a4ba0" stroke-linecap="round" stroke-linejoin="round" stroke-miterlimit="10" stroke-width="3.5"/>
    <line id="Line_9" data-name="Line 9" y2="19.689" transform="translate(674.47 553.968)" fill="none" stroke="#2a4ba0" stroke-linecap="round" stroke-linejoin="round" stroke-miterlimit="10" stroke-width="3.5"/>
    <line id="Line_10" data-name="Line 10" y2="19.689" transform="translate(682.744 553.968)" fill="none" stroke="#2a4ba0" stroke-linecap="round" stroke-linejoin="round" stroke-miterlimit="10" stroke-width="3.5"/>
    <line id="Line_11" data-name="Line 11" y2="19.689" transform="translate(691.227 553.968)" fill="none" stroke="#2a4ba0" stroke-linecap="round" stroke-linejoin="round" stroke-miterlimit="10" stroke-width="3.5"/>
    <path id="Path_29" data-name="Path 29" d="M285.9,262.148v10.2a9.809,9.809,0,0,1-4.094,8.027c-2.692,1.888-7.087,3.157-14.229,1.651a31.653,31.653,0,0,0-13.061,0c-7.131,1.5-11.526.248-14.207-1.651a9.764,9.764,0,0,1-4.1-8.027v-10.2l.089.01a10.721,10.721,0,0,0,10.046,9.11,31.529,31.529,0,0,0,9.289-1.145,21.457,21.457,0,0,1,10.847,0,31.5,31.5,0,0,0,9.289,1.145,10.731,10.731,0,0,0,10.046-9.11Z" transform="translate(472.124 311.856)" fill="#fff" stroke="#2a4ba0" stroke-linecap="round" stroke-linejoin="round" stroke-miterlimit="10" stroke-width="3.5"/>
    <path id="Path_30" data-name="Path 30" d="M285.494,258.167c-.871-2.91-3.575-5.791-9.345-6.492a15.607,15.607,0,0,0-6.082.544,29.539,29.539,0,0,1-8.321,1.323,13.348,13.348,0,0,0-1.386,0,29.562,29.562,0,0,1-8.32-1.323,15.609,15.609,0,0,0-6.082-.544c-5.77.7-8.474,3.582-9.345,6.492-1.872,6.255,2.981,12.7,9.725,13.1a31.24,31.24,0,0,0,9.29-1.141,21.6,21.6,0,0,1,10.85,0,31.251,31.251,0,0,0,9.291,1.141C282.513,270.868,287.367,264.421,285.494,258.167Z" transform="translate(472.124 311.856)" fill="#f9b023" stroke="#2a4ba0" stroke-linecap="round" stroke-linejoin="round" stroke-miterlimit="10" stroke-width="3.5"/>
  </g>
</svg>
