<svg xmlns="http://www.w3.org/2000/svg" width="116.884" height="116.886" viewBox="0 0 116.884 116.886">
  <g id="Group_7" data-name="Group 7" transform="translate(-797.453 -477.119)">
    <path id="Path_37" data-name="Path 37" d="M425.027,202.177H334.78a7.7,7.7,0,0,0-7.7,7.7V272.7a7.7,7.7,0,0,0,7.7,7.7h90.247a7.7,7.7,0,0,0,7.7-7.7v-62.82A7.7,7.7,0,0,0,425.027,202.177Z" transform="translate(472.124 311.856)" fill="none" stroke="#2a4ba0" stroke-linecap="round" stroke-linejoin="round" stroke-miterlimit="10" stroke-width="3.5"/>
    <path id="Path_38" data-name="Path 38" d="M436.4,256.023H408.36a14.039,14.039,0,0,1-14.039-14.039V240.59a14.039,14.039,0,0,1,14.039-14.039H436.4a4.067,4.067,0,0,1,4.067,4.067v21.337A4.066,4.066,0,0,1,436.4,256.023Z" transform="translate(472.124 311.856)" fill="#f9b023" stroke="#2a4ba0" stroke-linecap="round" stroke-linejoin="round" stroke-miterlimit="10" stroke-width="3.5"/>
    <ellipse id="Ellipse_4" data-name="Ellipse 4" cx="5.905" cy="5.922" rx="5.905" ry="5.922" transform="translate(875.922 547.222)" fill="#fff" stroke="#2a4ba0" stroke-linecap="round" stroke-linejoin="round" stroke-miterlimit="10" stroke-width="3.5"/>
    <line id="Line_12" data-name="Line 12" x2="25.543" transform="translate(813.987 541.346)" fill="none" stroke="#2a4ba0" stroke-linecap="round" stroke-linejoin="round" stroke-miterlimit="10" stroke-width="3.5"/>
    <line id="Line_13" data-name="Line 13" x2="18.402" transform="translate(813.987 532.395)" fill="none" stroke="#2a4ba0" stroke-linecap="round" stroke-linejoin="round" stroke-miterlimit="10" stroke-width="3.5"/>
    <path id="Path_39" data-name="Path 39" d="M339.071,202.177,352.621,175l60.149,27.176" transform="translate(472.124 311.856)" fill="none" stroke="#2a4ba0" stroke-linecap="round" stroke-linejoin="round" stroke-miterlimit="10" stroke-width="3.5"/>
    <path id="Path_40" data-name="Path 40" d="M350.332,202.177l7.416-15.057,33.416,15.057" transform="translate(472.124 311.856)" fill="none" stroke="#2a4ba0" stroke-linecap="round" stroke-linejoin="round" stroke-miterlimit="10" stroke-width="3.5"/>
    <path id="Path_41" data-name="Path 41" d="M379.9,178.949l17.578-11.936,23.528,35.164" transform="translate(472.124 311.856)" fill="none" stroke="#2a4ba0" stroke-linecap="round" stroke-linejoin="round" stroke-miterlimit="10" stroke-width="3.5"/>
  </g>
</svg>
