<svg xmlns="http://www.w3.org/2000/svg" width="116.886" height="116.886" viewBox="0 0 116.886 116.886">
  <g id="Group_9" data-name="Group 9" transform="translate(-495.25 -474.563)">
    <circle id="Ellipse_1" data-name="Ellipse 1" cx="49.731" cy="49.731" r="49.731" transform="translate(503.962 483.275)" fill="#fff" stroke="#2a4ba0" stroke-miterlimit="10" stroke-width="3.5"/>
    <line id="Line_1" data-name="Line 1" x2="12.538" y2="17.772" transform="translate(537.504 497.893)" fill="none" stroke="#2a4ba0" stroke-linecap="round" stroke-linejoin="round" stroke-miterlimit="10" stroke-width="3.5"/>
    <path id="Path_16" data-name="Path 16" d="M63.123,203.706l5.968,7.583h2.558L74.18,213" transform="translate(472.124 311.856)" fill="none" stroke="#2a4ba0" stroke-linecap="round" stroke-linejoin="round" stroke-miterlimit="10" stroke-width="3.5"/>
    <path id="Path_17" data-name="Path 17" d="M53.633,223.706l9.49-1.683,5.67-5.388L72.37,218.2" transform="translate(472.124 311.856)" fill="none" stroke="#2a4ba0" stroke-linecap="round" stroke-linejoin="round" stroke-miterlimit="10" stroke-width="3.5"/>
    <path id="Path_18" data-name="Path 18" d="M61.341,251.032l5.719-11.189-1.575-10.651L71.126,226" transform="translate(472.124 311.856)" fill="none" stroke="#2a4ba0" stroke-linecap="round" stroke-linejoin="round" stroke-miterlimit="10" stroke-width="3.5"/>
    <path id="Path_19" data-name="Path 19" d="M85.468,206.48a1.822,1.822,0,0,1-.249-.9V203.8a1.713,1.713,0,0,0-1.721-1.711h-3.86a1.713,1.713,0,0,0-1.721,1.711v1.77a1.812,1.812,0,0,1-.249.9c-2.086,3.577-16.4,29.981,3.834,49.757a.094.094,0,0,0,.13,0C101.868,236.461,87.554,210.057,85.468,206.48Z" transform="translate(472.124 311.856)" fill="#f9b023" stroke="#2a4ba0" stroke-linecap="round" stroke-linejoin="round" stroke-miterlimit="10" stroke-width="3.5"/>
    <line id="Line_2" data-name="Line 2" x1="12.538" y2="17.772" transform="translate(557.344 497.893)" fill="none" stroke="#2a4ba0" stroke-linecap="round" stroke-linejoin="round" stroke-miterlimit="10" stroke-width="3.5"/>
    <path id="Path_20" data-name="Path 20" d="M100.015,203.706l-5.968,7.583H91.489L88.958,213" transform="translate(472.124 311.856)" fill="none" stroke="#2a4ba0" stroke-linecap="round" stroke-linejoin="round" stroke-miterlimit="10" stroke-width="3.5"/>
    <path id="Path_21" data-name="Path 21" d="M109.5,223.706l-9.49-1.683-5.67-5.388L90.768,218.2" transform="translate(472.124 311.856)" fill="none" stroke="#2a4ba0" stroke-linecap="round" stroke-linejoin="round" stroke-miterlimit="10" stroke-width="3.5"/>
    <path id="Path_22" data-name="Path 22" d="M101.8,251.032l-5.719-11.189,1.575-10.651L92.012,226" transform="translate(472.124 311.856)" fill="none" stroke="#2a4ba0" stroke-linecap="round" stroke-linejoin="round" stroke-miterlimit="10" stroke-width="3.5"/>
    <line id="Line_3" data-name="Line 3" x2="7.798" transform="translate(549.794 518.336)" fill="none" stroke="#2a4ba0" stroke-linecap="round" stroke-linejoin="round" stroke-miterlimit="10" stroke-width="3.5"/>
    <path id="Path_23" data-name="Path 23" d="M73.894,214.679l2.507.328a39.824,39.824,0,0,0,10.336,0l2.507-.328" transform="translate(472.124 311.856)" fill="none" stroke="#2a4ba0" stroke-linecap="round" stroke-linejoin="round" stroke-miterlimit="10" stroke-width="3.5"/>
    <line id="Line_4" data-name="Line 4" y2="13.925" transform="translate(553.693 476.313)" fill="none" stroke="#2a4ba0" stroke-linecap="round" stroke-linejoin="round" stroke-miterlimit="10" stroke-width="3.5"/>
    <line id="Line_5" data-name="Line 5" y2="13.924" transform="translate(553.693 575.775)" fill="none" stroke="#2a4ba0" stroke-linecap="round" stroke-linejoin="round" stroke-miterlimit="10" stroke-width="3.5"/>
    <line id="Line_6" data-name="Line 6" x2="13.925" transform="translate(497 533.006)" fill="none" stroke="#2a4ba0" stroke-linecap="round" stroke-linejoin="round" stroke-miterlimit="10" stroke-width="3.5"/>
    <line id="Line_7" data-name="Line 7" x2="13.925" transform="translate(596.461 533.006)" fill="none" stroke="#2a4ba0" stroke-linecap="round" stroke-linejoin="round" stroke-miterlimit="10" stroke-width="3.5"/>
  </g>
</svg>
