<svg xmlns="http://www.w3.org/2000/svg" width="117.005" height="117.005" viewBox="0 0 117.005 117.005">
  <g id="Group_11" data-name="Group 11" transform="translate(-652.237 -628.927)">
    <path id="Path_50" data-name="Path 50" d="M186.1,432.044h0c-2.73-.713-4-2.934-3.7-6.369l4.123-38.461c.7-2.79,17.6-.582,16.9,2.208l-11.093,38.846A5.13,5.13,0,0,1,186.1,432.044Z" transform="translate(472.124 311.856)" fill="#fff" stroke="#2a4ba0" stroke-linecap="round" stroke-linejoin="round" stroke-miterlimit="10" stroke-width="3.5"/>
    <path id="Path_51" data-name="Path 51" d="M213.151,432.044h0c2.73-.713,4-2.934,3.7-6.369l-4.123-38.461c-.7-2.79-17.6-.582-16.9,2.208l11.093,38.846A5.13,5.13,0,0,0,213.151,432.044Z" transform="translate(472.124 311.856)" fill="#fff" stroke="#2a4ba0" stroke-linecap="round" stroke-linejoin="round" stroke-miterlimit="10" stroke-width="3.5"/>
    <path id="Path_52" data-name="Path 52" d="M216.166,394l-34.3-3.842,3.926-33.042a28.428,28.428,0,0,1,7.755-16.7,17.959,17.959,0,0,1,7.116-4.69,7.686,7.686,0,0,1,7.4,1.326,5.921,5.921,0,0,1,1.9,2.9C211,343.665,216.166,394,216.166,394Z" transform="translate(472.124 311.856)" fill="#f9b023" stroke="#2a4ba0" stroke-linecap="round" stroke-linejoin="round" stroke-miterlimit="10" stroke-width="3.5"/>
    <ellipse id="Ellipse_6" data-name="Ellipse 6" cx="8.803" cy="8.995" rx="8.803" ry="8.995" transform="translate(673.837 630.677)" fill="#fff" stroke="#2a4ba0" stroke-linecap="round" stroke-linejoin="round" stroke-miterlimit="10" stroke-width="3.5"/>
    <ellipse id="Ellipse_7" data-name="Ellipse 7" cx="8.803" cy="8.995" rx="8.803" ry="8.995" transform="translate(717.054 632.043)" fill="#f9b023" stroke="#2a4ba0" stroke-linecap="round" stroke-linejoin="round" stroke-miterlimit="10" stroke-width="3.5"/>
    <path id="Path_53" data-name="Path 53" d="M228.078,395.142h27.727l7.6-46.555-6.337-6.876a10.812,10.812,0,0,0-11.822-2.829,36.616,36.616,0,0,0-6.651,3.3,21.418,21.418,0,0,0-9.586,17.556Z" transform="translate(472.124 311.856)" fill="#fff" stroke="#2a4ba0" stroke-linecap="round" stroke-linejoin="round" stroke-miterlimit="10" stroke-width="3.5"/>
    <path id="Path_54" data-name="Path 54" d="M255.8,395.142l-4.469,37.065H238.058l-.781-37.065Z" transform="translate(472.124 311.856)" fill="#f9b023" stroke="#2a4ba0" stroke-linecap="round" stroke-linejoin="round" stroke-miterlimit="10" stroke-width="3.5"/>
    <path id="Path_55" data-name="Path 55" d="M276.7,391.105v-2.758a6.492,6.492,0,0,1,1.576-4.248h0a8.047,8.047,0,0,1,10.825-1.286h0a7.343,7.343,0,0,1,3.01,5.439l3.138,43.954" transform="translate(472.124 311.856)" fill="none" stroke="#2a4ba0" stroke-linecap="round" stroke-linejoin="round" stroke-miterlimit="10" stroke-width="3.5"/>
    <path id="Path_56" data-name="Path 56" d="M227.391,371l-24.6-7.25a6.441,6.441,0,0,1-4.283-7.923l.136-.482a6.265,6.265,0,0,1,7.754-4.376l24.6,7.25a6.441,6.441,0,0,1,4.283,7.923l-.136.482A6.265,6.265,0,0,1,227.391,371Z" transform="translate(472.124 311.856)" fill="#f9b023" stroke="#2a4ba0" stroke-linecap="round" stroke-linejoin="round" stroke-miterlimit="10" stroke-width="3.5"/>
    <path id="Path_57" data-name="Path 57" d="M272.709,379.017,246.33,350.533a6.956,6.956,0,0,1,.261-9.656l.245-.237a6.6,6.6,0,0,1,9.45.266l26.379,28.484a6.956,6.956,0,0,1-.261,9.656l-.245.237A6.6,6.6,0,0,1,272.709,379.017Z" transform="translate(472.124 311.856)" fill="#fff" stroke="#2a4ba0" stroke-linecap="round" stroke-linejoin="round" stroke-miterlimit="10" stroke-width="3.5"/>
  </g>
</svg>
