<svg xmlns="http://www.w3.org/2000/svg" width="117.605" height="116.886" viewBox="0 0 117.605 116.886">
  <g id="Group_12" data-name="Group 12" transform="translate(-818.162 -625.756)">
    <g id="Group_6" data-name="Group 6">
      <path id="Path_58" data-name="Path 58" d="M437.62,348.535V317.387H423.909v18.857L400.938,315.65l-46.506,41.692v58.7h93.011v-58.7Z" transform="translate(472.124 311.856)" fill="#fff" stroke="#2a4ba0" stroke-linecap="round" stroke-linejoin="round" stroke-miterlimit="10" stroke-width="3.5"/>
      <line id="Line_21" data-name="Line 21" x1="7.705" y2="6.652" transform="translate(820.63 667.603)" fill="#f9b023" stroke="#2a4ba0" stroke-linecap="round" stroke-linejoin="round" stroke-miterlimit="10" stroke-width="3.5"/>
      <line id="Line_22" data-name="Line 22" x2="7.705" y2="6.652" transform="translate(917.757 667.569)" fill="#f9b023" stroke="#2a4ba0" stroke-linecap="round" stroke-linejoin="round" stroke-miterlimit="10" stroke-width="3.5"/>
      <ellipse id="Ellipse_8" data-name="Ellipse 8" cx="10.767" cy="11.262" rx="10.767" ry="11.262" transform="translate(862.295 657.855)" fill="#f9b023" stroke="#2a4ba0" stroke-linecap="round" stroke-linejoin="round" stroke-miterlimit="10" stroke-width="3.5"/>
      <path id="Path_59" data-name="Path 59" d="M415.6,416.046H386.276V382.87a4.87,4.87,0,0,1,4.87-4.87h19.583a4.87,4.87,0,0,1,4.87,4.87v33.176Z" transform="translate(472.124 311.856)" fill="#fff" stroke="#2a4ba0" stroke-linecap="round" stroke-linejoin="round" stroke-miterlimit="10" stroke-width="3.5"/>
      <path id="Path_60" data-name="Path 60" d="M461.861,390.532s-12.531,3.5-18.95-9.387c-6.419,12.888-18.95,9.387-18.95,9.387-.917,33.094,18.95,38.5,18.95,38.5S462.778,423.626,461.861,390.532Z" transform="translate(472.124 311.856)" fill="#f9b023" stroke="#2a4ba0" stroke-linecap="round" stroke-linejoin="round" stroke-miterlimit="10" stroke-width="3.5"/>
      <path id="Path_61" data-name="Path 61" d="M436.87,406.99l3.668,3.954,8.329-8.895" transform="translate(472.124 311.856)" fill="none" stroke="#2a4ba0" stroke-linecap="round" stroke-linejoin="round" stroke-miterlimit="10" stroke-width="3.5"/>
    </g>
  </g>
</svg>
