<svg xmlns="http://www.w3.org/2000/svg" width="117.903" height="117.527" viewBox="0 0 117.903 117.527">
  <g id="Group_4" data-name="Group 4" transform="translate(-1081.698 -476.478)">
    <path id="Path_42" data-name="Path 42" d="M666.228,211.566l-50.987,22.616V280.4h50.987Z" transform="translate(472.124 311.856)" fill="#f9b023" stroke="#2a4ba0" stroke-linecap="round" stroke-linejoin="round" stroke-miterlimit="10" stroke-width="3.5"/>
    <path id="Path_43" data-name="Path 43" d="M721.565,178.181l-34.042-11.168-21.295,12.3V280.4h55.337Z" transform="translate(472.124 311.856)" fill="none" stroke="#2a4ba0" stroke-linecap="round" stroke-linejoin="round" stroke-miterlimit="10" stroke-width="3.5"/>
    <ellipse id="Ellipse_5" data-name="Ellipse 5" cx="7.086" cy="7.744" rx="7.086" ry="7.744" transform="translate(1105.735 544.64)" fill="#fff" stroke="#2a4ba0" stroke-linecap="round" stroke-linejoin="round" stroke-miterlimit="10" stroke-width="3.5"/>
    <path id="Path_44" data-name="Path 44" d="M650.5,254.873H630.862a3.961,3.961,0,0,0-3.961,3.961V280.4h27.556V258.834A3.962,3.962,0,0,0,650.5,254.873Z" transform="translate(472.124 311.856)" fill="#fff" stroke="#2a4ba0" stroke-linecap="round" stroke-linejoin="round" stroke-miterlimit="10" stroke-width="3.5"/>
    <path id="Path_45" data-name="Path 45" d="M687.223,205.229v15.843a4.332,4.332,0,0,0,4.332,4.332h30.009V200.9H691.555A4.333,4.333,0,0,0,687.223,205.229Z" transform="translate(472.124 311.856)" fill="#f9b023" stroke="#2a4ba0" stroke-linecap="round" stroke-linejoin="round" stroke-miterlimit="10" stroke-width="3.5"/>
    <line id="Line_14" data-name="Line 14" y2="24.508" transform="translate(1176.518 512.752)" fill="none" stroke="#2a4ba0" stroke-linecap="round" stroke-linejoin="round" stroke-miterlimit="10" stroke-width="3.5"/>
    <path id="Path_46" data-name="Path 46" d="M687.223,241.762V257.6a4.332,4.332,0,0,0,4.332,4.332h30.009V237.43H691.555A4.332,4.332,0,0,0,687.223,241.762Z" transform="translate(472.124 311.856)" fill="none" stroke="#2a4ba0" stroke-linecap="round" stroke-linejoin="round" stroke-miterlimit="10" stroke-width="3.5"/>
    <line id="Line_15" data-name="Line 15" y2="24.507" transform="translate(1176.518 549.286)" fill="none" stroke="#2a4ba0" stroke-linecap="round" stroke-linejoin="round" stroke-miterlimit="10" stroke-width="3.5"/>
    <line id="Line_16" data-name="Line 16" x1="111.619" transform="translate(1084.745 592.255)" fill="none" stroke="#2a4ba0" stroke-linecap="round" stroke-linejoin="round" stroke-miterlimit="10" stroke-width="3.5"/>
    <line id="Line_17" data-name="Line 17" x1="25.069" y2="14.485" transform="translate(1134.578 478.869)" fill="none" stroke="#2a4ba0" stroke-linecap="round" stroke-linejoin="round" stroke-miterlimit="10" stroke-width="3.5"/>
    <line id="Line_18" data-name="Line 18" x2="34.041" y2="11.168" transform="translate(1163.351 480.084)" fill="none" stroke="#2a4ba0" stroke-linecap="round" stroke-linejoin="round" stroke-miterlimit="10" stroke-width="3.5"/>
    <line id="Line_19" data-name="Line 19" x1="50.987" y2="22.617" transform="translate(1084.007 524.911)" fill="none" stroke="#2a4ba0" stroke-linecap="round" stroke-linejoin="round" stroke-miterlimit="10" stroke-width="3.5"/>
  </g>
</svg>
